<svg xmlns="http://www.w3.org/2000/svg" version="1.1" xmlns:xlink="http://www.w3.org/1999/xlink" xmlns:svgjs="http://svgjs.com/svgjs" width="1000" height="1000"><rect width="1000" height="1000" rx="200" ry="200" fill="#f3f2f2"></rect><g transform="matrix(3.8461538461538463,0,0,3.8461538461538463,49.680301831318786,288.5262469557615)"><svg xmlns="http://www.w3.org/2000/svg" version="1.1" xmlns:xlink="http://www.w3.org/1999/xlink" xmlns:svgjs="http://svgjs.com/svgjs" width="234" height="110"><svg width="234" height="110" viewBox="0 0 234 110" fill="none" xmlns="http://www.w3.org/2000/svg">
<rect x="1.39482" y="0.954529" width="231.435" height="107.571" fill="white" fill-opacity="0.54" stroke="black"></rect>
<line x1="110.362" y1="31.3058" x2="136.186" y2="31.3058" stroke="black"></line>
<line x1="94.8669" y1="46.0932" x2="151.681" y2="46.0932" stroke="black"></line>
<line x1="100.032" y1="59.2366" x2="143.934" y2="59.2366" stroke="black"></line>
<line x1="76.7899" y1="72.3809" x2="167.176" y2="72.3809" stroke="black"></line>
<line x1="100.032" y1="88.8105" x2="143.934" y2="88.8105" stroke="black"></line>
<line x1="190.47" y1="1.92871" x2="231" y2="1.92871" stroke="#030303" stroke-opacity="0.07"></line>
<path d="M190.47 2.42871C190.927 80.6687 217.435 107.684 230.632 109" stroke="#030303" stroke-opacity="0.07"></path>
<line x1="230.5" y1="109" x2="230.5" y2="2.42874" stroke="#030303" stroke-opacity="0.07"></line>
<path d="M190.93 2.92871C190.954 16.7299 191.984 30.3863 193.961 43.1351C195.962 56.0388 198.894 67.7529 202.584 77.6106C206.277 87.4726 210.648 95.2597 215.431 100.552L215.45 100.573L215.466 100.595C218.361 104.608 220.802 106.558 223.117 107.524C225.294 108.432 227.409 108.495 229.83 108.5L229.83 2.92871H190.93Z" fill="black" fill-opacity="0.14" stroke="black"></path>
<path d="M47.4379 2.92871C47.4096 16.7258 46.2086 30.378 43.9023 43.1227C41.5679 56.0222 38.1482 67.7319 33.8432 77.5857C29.5368 87.4426 24.4376 95.2292 18.8522 100.525L18.8318 100.544L18.8137 100.566C15.4373 104.576 12.5805 106.539 9.8508 107.515C7.25848 108.442 4.73896 108.496 1.87846 108.5L1.87847 2.92871H47.4379Z" fill="#D2D2D2" stroke="black"></path>
<path d="M218.499 75.6169C218.499 80.5846 215.79 85.1218 211.33 88.4347C206.871 91.7476 200.686 93.8117 193.833 93.8117C186.981 93.8117 180.796 91.7476 176.337 88.4347C171.877 85.1218 169.168 80.5846 169.168 75.6169C169.168 70.6492 171.877 66.1119 176.337 62.799C180.796 59.4861 186.981 57.4221 193.833 57.4221C200.686 57.4221 206.871 59.4861 211.33 62.799C215.79 66.1119 218.499 70.6492 218.499 75.6169Z" fill="white" stroke="black"></path>
<path d="M180.494 63.6128C180.494 64.4906 179.984 65.3373 179.053 65.9855C178.125 66.6324 176.815 67.0485 175.344 67.0485C173.874 67.0485 172.564 66.6324 171.635 65.9855C170.705 65.3373 170.195 64.4906 170.195 63.6128C170.195 62.735 170.705 61.8882 171.635 61.24C172.564 60.5931 173.874 60.177 175.344 60.177C176.815 60.177 178.125 60.5931 179.053 61.24C179.984 61.8882 180.494 62.735 180.494 63.6128Z" fill="white" stroke="black"></path>
<path d="M186.657 58.89C186.657 59.7678 186.147 60.6146 185.216 61.2627C184.288 61.9097 182.978 62.3257 181.507 62.3257C180.037 62.3257 178.727 61.9097 177.798 61.2627C176.868 60.6146 176.358 59.7678 176.358 58.89C176.358 58.0122 176.868 57.1654 177.798 56.5172C178.727 55.8703 180.037 55.4542 181.507 55.4542C182.978 55.4542 184.288 55.8703 185.216 56.5172C186.147 57.1654 186.657 58.0122 186.657 58.89Z" fill="white" stroke="black"></path>
<path d="M195.388 56.5285C195.388 57.4063 194.878 58.253 193.947 58.9012C193.019 59.5481 191.709 59.9642 190.238 59.9642C188.768 59.9642 187.458 59.5481 186.529 58.9012C185.599 58.253 185.089 57.4063 185.089 56.5285C185.089 55.6507 185.599 54.8039 186.529 54.1557C187.458 53.5088 188.768 53.0927 190.238 53.0927C191.709 53.0927 193.019 53.5088 193.947 54.1557C194.878 54.8039 195.388 55.6507 195.388 56.5285Z" fill="white" stroke="black"></path>
<path d="M205.66 56.135C205.66 57.0128 205.149 57.8596 204.219 58.5078C203.29 59.1547 201.981 59.5708 200.51 59.5708C199.039 59.5708 197.73 59.1547 196.801 58.5078C195.871 57.8596 195.361 57.0128 195.361 56.135C195.361 55.2572 195.871 54.4104 196.801 53.7623C197.73 53.1153 199.039 52.6993 200.51 52.6993C201.981 52.6993 203.29 53.1153 204.219 53.7623C205.149 54.4104 205.66 55.2572 205.66 56.135Z" fill="white" stroke="black"></path>
<path d="M213.363 59.2834C213.363 60.1612 212.853 61.008 211.923 61.6561C210.994 62.3031 209.685 62.7192 208.214 62.7192C206.743 62.7192 205.434 62.3031 204.505 61.6561C203.575 61.008 203.064 60.1612 203.064 59.2834C203.064 58.4056 203.575 57.5588 204.505 56.9107C205.434 56.2637 206.743 55.8477 208.214 55.8477C209.685 55.8477 210.994 56.2637 211.923 56.9107C212.853 57.5588 213.363 58.4056 213.363 59.2834Z" fill="white" stroke="black"></path>
<path d="M218.499 64.0065C218.499 64.8843 217.989 65.7311 217.059 66.3792C216.13 67.0262 214.821 67.4422 213.35 67.4422C211.879 67.4422 210.57 67.0262 209.641 66.3792C208.711 65.7311 208.201 64.8843 208.201 64.0065C208.201 63.1287 208.711 62.2819 209.641 61.6338C210.57 60.9868 211.879 60.5707 213.35 60.5707C214.821 60.5707 216.13 60.9868 217.059 61.6338C217.989 62.2819 218.499 63.1287 218.499 64.0065Z" fill="white" stroke="black"></path>
<path d="M72.5039 75.6169C72.5039 80.5846 69.7944 85.1218 65.3348 88.4347C60.8751 91.7476 54.6907 93.8117 47.8379 93.8117C40.9851 93.8117 34.8007 91.7476 30.3411 88.4347C25.8814 85.1218 23.172 80.5846 23.172 75.6169C23.172 70.6492 25.8814 66.1119 30.3411 62.799C34.8007 59.4861 40.9851 57.4221 47.8379 57.4221C54.6907 57.4221 60.8751 59.4861 65.3348 62.799C69.7944 66.1119 72.5039 70.6492 72.5039 75.6169Z" fill="white" stroke="black"></path>
<path d="M34.498 63.6128C34.498 64.4906 33.9878 65.3373 33.0575 65.9855C32.1288 66.6324 30.819 67.0485 29.3485 67.0485C27.8779 67.0485 26.5681 66.6324 25.6395 65.9855C24.7091 65.3373 24.199 64.4906 24.199 63.6128C24.199 62.735 24.7091 61.8882 25.6395 61.24C26.5681 60.5931 27.8779 60.177 29.3485 60.177C30.819 60.177 32.1288 60.5931 33.0575 61.24C33.9878 61.8882 34.498 62.735 34.498 63.6128Z" fill="white" stroke="black"></path>
<path d="M40.6613 58.89C40.6613 59.7678 40.1511 60.6146 39.2208 61.2627C38.2921 61.9097 36.9823 62.3257 35.5118 62.3257C34.0412 62.3257 32.7314 61.9097 31.8028 61.2627C30.8724 60.6146 30.3623 59.7678 30.3623 58.89C30.3623 58.0122 30.8724 57.1654 31.8028 56.5172C32.7314 55.8703 34.0412 55.4542 35.5118 55.4542C36.9823 55.4542 38.2921 55.8703 39.2208 56.5172C40.1511 57.1654 40.6613 58.0122 40.6613 58.89Z" fill="white" stroke="black"></path>
<path d="M49.3922 56.5285C49.3922 57.4063 48.8821 58.253 47.9517 58.9012C47.0231 59.5481 45.7133 59.9642 44.2427 59.9642C42.7722 59.9642 41.4624 59.5481 40.5337 58.9012C39.6034 58.253 39.0932 57.4063 39.0932 56.5285C39.0932 55.6507 39.6034 54.8039 40.5337 54.1557C41.4624 53.5088 42.7722 53.0927 44.2427 53.0927C45.7133 53.0927 47.0231 53.5088 47.9517 54.1557C48.8821 54.8039 49.3922 55.6507 49.3922 56.5285Z" fill="white" stroke="black"></path>
<path d="M59.664 56.135C59.664 57.0128 59.1539 57.8596 58.2235 58.5078C57.2948 59.1547 55.9851 59.5708 54.5145 59.5708C53.0439 59.5708 51.7341 59.1547 50.8055 58.5078C49.8751 57.8596 49.365 57.0128 49.365 56.135C49.365 55.2572 49.8751 54.4104 50.8055 53.7623C51.7341 53.1153 53.0439 52.6993 54.5145 52.6993C55.9851 52.6993 57.2948 53.1153 58.2235 53.7623C59.1539 54.4104 59.664 55.2572 59.664 56.135Z" fill="white" stroke="black"></path>
<path d="M67.3678 59.2834C67.3678 60.1612 66.8577 61.008 65.9273 61.6561C64.9987 62.3031 63.6889 62.7192 62.2183 62.7192C60.7477 62.7192 59.438 62.3031 58.5093 61.6561C57.5789 61.008 57.0688 60.1612 57.0688 59.2834C57.0688 58.4056 57.5789 57.5588 58.5093 56.9107C59.438 56.2637 60.7477 55.8477 62.2183 55.8477C63.6889 55.8477 64.9987 56.2637 65.9273 56.9107C66.8577 57.5588 67.3678 58.4056 67.3678 59.2834Z" fill="white" stroke="black"></path>
<path d="M72.5037 64.0065C72.5037 64.8843 71.9936 65.7311 71.0632 66.3792C70.1346 67.0262 68.8248 67.4422 67.3542 67.4422C65.8837 67.4422 64.5739 67.0262 63.6453 66.3792C62.7149 65.7311 62.2047 64.8843 62.2047 64.0065C62.2047 63.1287 62.7149 62.2819 63.6453 61.6338C64.5739 60.9868 65.8837 60.5707 67.3542 60.5707C68.8248 60.5707 70.1346 60.9868 71.0632 61.6338C71.9936 62.2819 72.5037 63.1287 72.5037 64.0065Z" fill="white" stroke="black"></path>
<path d="M157.483 98.8431C157.483 110.068 141.208 107.123 121.132 107.123C101.056 107.123 84.7813 110.068 84.7813 98.8431C84.7813 87.6186 101.056 78.5194 121.132 78.5194C141.208 78.5194 157.483 87.6186 157.483 98.8431Z" fill="black"></path>
<path d="M230.185 98.8431C230.185 110.068 213.91 107.123 193.834 107.123C173.758 107.123 157.483 110.068 157.483 98.8431C157.483 87.6186 173.758 78.5194 193.834 78.5194C213.91 78.5194 230.185 87.6186 230.185 98.8431Z" fill="black"></path>
<path d="M84.7813 98.8431C84.7813 110.068 68.5065 107.123 48.4305 107.123C28.3545 107.123 12.0797 110.068 12.0797 98.8431C12.0797 87.6186 28.3545 78.5194 48.4305 78.5194C68.5065 78.5194 84.7813 87.6186 84.7813 98.8431Z" fill="black"></path>
</svg></svg></g></svg>